<?xml version="1.0" encoding="UTF-8"?>
<svg xmlns="http://www.w3.org/2000/svg" xmlns:xlink="http://www.w3.org/1999/xlink" width="14px" height="14px" viewBox="0 0 14 14" version="1.1">
<g id="surface1">
<path style="fill:none;stroke-width:2;stroke-linecap:round;stroke-linejoin:round;stroke:grey;stroke-opacity:1;stroke-miterlimit:10;" d="M 10 24 L 19 24 L 19 9 L 3 9 L 3 24 L 6 24 " transform="matrix(0.4375,0,0,0.4375,0,0)"/>
<path style="fill:none;stroke-width:2;stroke-linecap:round;stroke-linejoin:round;stroke:grey;stroke-opacity:1;stroke-miterlimit:10;" d="M 26 24 C 26 25.107143 25.107143 26 24 26 C 22.892857 26 22 25.107143 22 24 C 22 22.892857 22.892857 22 24 22 C 25.107143 22 26 22.892857 26 24 Z M 26 24 " transform="matrix(0.4375,0,0,0.4375,0,0)"/>
<path style="fill:none;stroke-width:2;stroke-linecap:round;stroke-linejoin:round;stroke:grey;stroke-opacity:1;stroke-miterlimit:10;" d="M 10 24 C 10 25.107143 9.107143 26 8 26 C 6.892857 26 6 25.107143 6 24 C 6 22.892857 6.892857 22 8 22 C 9.107143 22 10 22.892857 10 24 Z M 10 24 " transform="matrix(0.4375,0,0,0.4375,0,0)"/>
<path style="fill:none;stroke-width:2;stroke-linecap:round;stroke-linejoin:round;stroke:grey;stroke-opacity:1;stroke-miterlimit:10;" d="M 19 24 L 19 13 L 25 13 L 29 18 L 29 24 L 26 24 " transform="matrix(0.4375,0,0,0.4375,0,0)"/>
</g>
</svg>
